<?xml version="1.0" encoding="UTF-8"?>
<svg version="1.1" xmlns="http://www.w3.org/2000/svg" width="300" height="300">
<path d="M0 0 C99 0 198 0 300 0 C300 99 300 198 300 300 C201 300 102 300 0 300 C0 201 0 102 0 0 Z " fill="#FEFEFE" transform="translate(0,0)"/>
<path d="M0 0 C6.29624821 3.57253788 9.94279723 6.91432919 12.26171875 13.87109375 C13.27011578 20.82775679 12.0778942 25.83210918 8.15625 31.6640625 C4.42387536 36.01208656 0.34884603 38.39615109 -5.328125 39.26953125 C-11.986207 39.52984724 -16.26667218 37.98961581 -21.36328125 33.62109375 C-26.26882908 27.94098573 -28.47895274 23.88992222 -28.11328125 16.359375 C-27.17659225 10.14405322 -24.61328192 6.26174805 -19.67578125 2.43359375 C-13.68113167 -1.78912486 -6.87476202 -2.83424568 0 0 Z " fill="#EB4F4F" transform="translate(237.73828125,211.12890625)"/>
<path d="M0 0 C6.29624821 3.57253788 9.94279723 6.91432919 12.26171875 13.87109375 C13.27011578 20.82775679 12.0778942 25.83210918 8.15625 31.6640625 C4.42387536 36.01208656 0.34884603 38.39615109 -5.328125 39.26953125 C-11.986207 39.52984724 -16.26667218 37.98961581 -21.36328125 33.62109375 C-26.26882908 27.94098573 -28.47895274 23.88992222 -28.11328125 16.359375 C-27.17659225 10.14405322 -24.61328192 6.26174805 -19.67578125 2.43359375 C-13.68113167 -1.78912486 -6.87476202 -2.83424568 0 0 Z " fill="#EB4F4F" transform="translate(77.73828125,211.12890625)"/>
<path d="M0 0 C6.29624821 3.57253788 9.94279723 6.91432919 12.26171875 13.87109375 C13.27011578 20.82775679 12.0778942 25.83210918 8.15625 31.6640625 C4.42387536 36.01208656 0.34884603 38.39615109 -5.328125 39.26953125 C-11.986207 39.52984724 -16.26667218 37.98961581 -21.36328125 33.62109375 C-26.26882908 27.94098573 -28.47895274 23.88992222 -28.11328125 16.359375 C-27.17659225 10.14405322 -24.61328192 6.26174805 -19.67578125 2.43359375 C-13.68113167 -1.78912486 -6.87476202 -2.83424568 0 0 Z " fill="#EB4F4F" transform="translate(157.73828125,131.12890625)"/>
<path d="M0 0 C6.29624821 3.57253788 9.94279723 6.91432919 12.26171875 13.87109375 C13.27011578 20.82775679 12.0778942 25.83210918 8.15625 31.6640625 C4.42387536 36.01208656 0.34884603 38.39615109 -5.328125 39.26953125 C-11.986207 39.52984724 -16.26667218 37.98961581 -21.36328125 33.62109375 C-26.26882908 27.94098573 -28.47895274 23.88992222 -28.11328125 16.359375 C-27.17659225 10.14405322 -24.61328192 6.26174805 -19.67578125 2.43359375 C-13.68113167 -1.78912486 -6.87476202 -2.83424568 0 0 Z " fill="#EB4F4F" transform="translate(237.73828125,51.12890625)"/>
<path d="M0 0 C6.29624821 3.57253788 9.94279723 6.91432919 12.26171875 13.87109375 C13.27011578 20.82775679 12.0778942 25.83210918 8.15625 31.6640625 C4.42387536 36.01208656 0.34884603 38.39615109 -5.328125 39.26953125 C-11.986207 39.52984724 -16.26667218 37.98961581 -21.36328125 33.62109375 C-26.26882908 27.94098573 -28.47895274 23.88992222 -28.11328125 16.359375 C-27.17659225 10.14405322 -24.61328192 6.26174805 -19.67578125 2.43359375 C-13.68113167 -1.78912486 -6.87476202 -2.83424568 0 0 Z " fill="#EB4F4F" transform="translate(77.73828125,51.12890625)"/>
</svg>
